<svg class="w-[42px]" version="1.1" id="Calque_1" xmlns="http://www.w3.org/2000/svg" xmlns:xlink="http://www.w3.org/1999/xlink" x="0px" y="0px"
  viewBox="0 0 72 72" style="enable-background:new 0 0 72 72;" xml:space="preserve">
<polygon fill="transparent" points="5,44.5 21.2,28.1 26.4,4.8 42.9,20.8 67.8,26 51.2,42.9 46,66.6 27.3,50.1 "/>
<path fill="#6F42F5" d="M47.4,72l-20-19.3L0,47.4l19.3-20L24.6,0l20,19.3L72,24.6l-19.3,20L47.4,72z M30.6,48.7l13.5,13.1l3.7-18.7
  c0.2-0.8,0.6-1.3,1-1.7l13.1-13.5l-18.7-3.7c-0.8-0.2-1.3-0.6-1.7-1l-13.6-13l-3.7,18.7c-0.2,0.8-0.6,1.3-1,1.7l-13,13.5
  l18.7,3.7C29.5,47.9,30,48.3,30.6,48.7z"/>
<path fill="#6F42F5" d="M36,44.5c-1.3,0-2.7-0.4-4-1c-2.1-1.2-3.5-2.9-4.2-5c-1.3-4.4,1.2-9.2,5.6-10.8c2.1-0.8,4.4-0.4,6.5,0.6
  c2.1,1.2,3.5,2.9,4.2,5l0,0c0.8,2.1,0.6,4.4-0.6,6.5c-1.2,2.1-2.9,3.5-5,4.2C37.7,44.5,36.8,44.5,36,44.5z M36,32.5
  c-0.4,0-0.8,0-1,0.2c-1,0.2-1.5,1-2.1,1.7c-0.4,0.8-0.6,1.7-0.2,2.7c0.2,1,1,1.5,1.7,2.1c0.8,0.4,1.7,0.6,2.7,0.2
  c1-0.2,1.5-1,2.1-1.7c0.4-0.8,0.6-1.7,0.2-2.7l0,0c-0.2-1-1-1.5-1.7-2.1C37.2,32.7,36.6,32.5,36,32.5z"/>
</svg>